<mxfile host="app.diagrams.net" modified="2024-05-08T03:25:47.324Z" agent="Mozilla/5.0 (X11; Linux x86_64) AppleWebKit/537.36 (KHTML, like Gecko) Chrome/124.0.0.0 Safari/537.36" version="24.3.1" etag="eO1qxt3dgyVi9Ms2oWb3" type="github">
  <diagram name="第 1 页" id="Wa58YLn-hP2wR9-x2zR9">
    <mxGraphModel>
      <root>
        <mxCell id="0" />
        <mxCell id="1" parent="0" />
      </root>
    </mxGraphModel>
  </diagram>
</mxfile>
